<?xml version="1.0" encoding="UTF-8"?><svg id="Layer_2" xmlns="http://www.w3.org/2000/svg" viewBox="0 0 235.15 91.48"><defs><style>.cls-1{fill:#1c75bc;}.cls-1,.cls-2,.cls-3,.cls-4{stroke-width:0px;}.cls-2{fill:#00a651;}.cls-3{fill:#ed1c24;}.cls-4{fill:#fbb040;}</style></defs><g id="Layer_1-2"><path class="cls-1" d="M195.09,25.37c-12.61,0-22.83,10.22-22.83,22.83s10.22,22.83,22.83,22.83,22.83-10.22,22.83-22.83-10.22-22.83-22.83-22.83ZM195.09,62.05c-7.06,0-12.78-6.2-12.78-13.85s5.72-13.85,12.78-13.85,12.78,6.2,12.78,13.85-5.72,13.85-12.78,13.85Z"/><path class="cls-3" d="M108.8,25.37v22.83c0,7.65-5.46,13.85-12.2,13.85s-12.2-6.2-12.2-13.85v-22.83h-9.59v22.83c0,12.61,9.76,22.83,21.79,22.83,4.52,0,8.72-1.44,12.2-3.91v3.91h9.59V25.37h-9.59Z"/><path class="cls-1" d="M69.49,32.73h-32.76v10.05l22.04.13c-3.18,10.62-11.6,18.36-23.25,18.36-14.23,0-25.76-11.53-25.76-25.76s11.53-25.76,25.76-25.76c7,0,13.34,2.79,17.98,7.32l7-6.8C54.08,3.93,45.26,0,35.51,0,15.9,0,0,15.9,0,35.51s15.9,35.51,35.51,35.51,34.09-15.9,34.09-35.51c0-.94-.05-1.86-.12-2.78Z"/><path class="cls-4" d="M155.35,26.79v3.47c-3.49-3.06-7.89-4.89-12.68-4.89-11.33,0-20.52,10.22-20.52,22.83s9.19,22.83,20.52,22.83c4.79,0,9.19-1.83,12.68-4.89v2.51c0,7.65-5.53,13.85-12.35,13.85-5.04,0-9.36-3.39-11.28-8.24l-8.93,3.52c3.4,8.06,11.17,13.7,20.22,13.7,12.18,0,22.06-10.22,22.06-22.83h0V26.79h-9.71ZM143.51,62.05c-6.54,0-11.84-6.2-11.84-13.85s5.3-13.85,11.84-13.85,11.84,6.2,11.84,13.85-5.3,13.85-11.84,13.85Z"/><rect class="cls-2" x="225.62" y="2.75" width="9.53" height="66.72"/><polygon class="cls-3" points="102.38 16.87 95.57 16.87 102.89 7.53 114.81 7.53 102.38 16.87"/></g></svg>